<svg width="1282" height="253" viewBox="0 0 1282 253" fill="none" xmlns="http://www.w3.org/2000/svg">
<g clip-path="url(#clip0_9_78)">
<path d="M1280.58 62.545C1282.78 60.238 1282.52 55.7522 1279.55 54.7269C1279.03 54.5987 1278.25 54.4706 1277.48 54.5987C1266.11 54.7269 1254.62 53.9579 1243.25 55.2396C1237.96 55.4959 1226.85 52.8044 1230.6 61.3915V61.5197C1232.79 63.0577 1235.5 63.4422 1237.83 64.7239C1238.73 65.2365 1239.64 65.8774 1240.41 66.7745C1245.97 72.9265 1244.67 82.4108 1244.67 90.2289C1244.16 102.533 1246.09 114.837 1245.32 127.141C1244.93 133.293 1243.77 139.317 1243.38 145.469C1243.25 147.647 1243.12 149.698 1243.25 151.877C1243.25 152.005 1243.25 152.133 1243.25 152.133C1243.25 164.181 1245.06 176.228 1244.29 188.148C1243.9 195.197 1236.67 196.735 1232.79 191.608C1228.14 186.354 1225.17 180.714 1222.2 175.075C1220.26 171.358 1218.33 167.513 1215.74 163.924C1210.96 156.875 1204.89 150.595 1199.99 143.674C1187.2 123.808 1174.28 103.943 1160.98 84.5896C1158.27 81.2573 1155.43 79.7193 1152.46 77.4123C1150.52 75.1053 1148.58 73.0547 1146.52 71.004C1131.02 56.1367 1111 48.5749 1085.3 54.0861C1082.2 54.9832 1073.93 56.2649 1073.67 59.7254C1073.67 60.3662 1073.8 61.007 1074.06 61.6479C1074.71 63.4422 1079.74 63.4422 1081.68 63.9549C1082.07 64.083 1082.58 64.2112 1082.97 64.4675C1088.52 66.6464 1091.62 72.6702 1091.75 78.4376C1091.75 79.9756 1091.75 81.5136 1091.88 83.1798C1091.88 85.3586 1091.88 87.6656 1091.88 89.8444C1091.11 101.379 1090.72 114.837 1090.98 127.141C1090.98 131.242 1091.24 135.343 1091.37 139.06C1094.6 154.056 1090.85 168.154 1091.37 183.406C1092.27 197.376 1093.05 213.525 1092.14 226.726C1090.98 238.005 1087.88 239.927 1078.19 243.9C1076.9 245.182 1076.51 248.13 1077.68 249.668C1078.19 250.308 1078.84 250.693 1079.87 250.565C1083.75 250.693 1088.91 250.821 1092.92 250.565C1102.34 249.411 1111.64 250.18 1121.07 251.462C1125.08 251.975 1133.34 250.693 1129.85 245.054C1129.08 243.9 1127.79 243.388 1126.5 243.003C1125.33 242.619 1124.04 242.49 1122.88 241.978C1121.33 241.465 1120.17 240.696 1119.26 239.671C1115.39 235.826 1115.39 229.289 1115.39 223.906C1113.19 202.374 1113.32 180.586 1113.71 158.926C1113.71 156.875 1113.84 154.697 1113.84 152.646C1114.1 141.111 1114.36 129.448 1114.23 117.913C1114.61 112.274 1120.3 109.838 1124.04 113.812C1127.53 119.066 1131.15 124.065 1134.76 129.191C1145.22 143.546 1156.33 157.516 1166.02 172.127C1169.51 177.766 1172.35 183.79 1176.35 189.045C1180.48 194.684 1185.78 199.298 1189.91 205.066C1194.17 213.14 1198.95 220.574 1204.38 226.982C1206.31 229.289 1208.25 231.34 1210.32 233.391C1225.82 248.386 1245.84 255.82 1271.54 250.308C1274.77 249.411 1279.8 248.13 1279.93 244.797C1279.93 244.156 1279.8 243.516 1279.55 242.875C1278.9 241.081 1277.09 240.952 1275.28 240.44C1274.77 240.312 1274.38 240.183 1273.86 239.927C1268.31 237.748 1265.21 231.724 1265.08 225.957C1265.08 224.419 1265.08 222.753 1264.95 221.215C1264.95 219.036 1264.95 216.985 1264.95 214.806C1264.95 202.374 1265.47 189.814 1265.86 177.382C1266.5 159.695 1266.89 142.008 1265.6 124.193C1264.95 111.248 1264.56 98.3034 1264.69 85.3586C1265.08 72.7983 1267.79 65.7492 1280.58 62.545Z" fill="white"/>
<path d="M1053.65 123.937C1044.61 98.1753 1023.95 77.4124 999.278 66.0056C980.551 55.3678 958.723 50.113 937.025 52.1636C908.869 54.8551 872.189 66.1337 853.978 87.6657C846.487 96.1246 837.317 106.378 833.442 117.528C814.585 173.152 839.254 219.036 892.079 243.003C918.685 256.717 950.328 253.769 978.872 248.642C998.374 243.131 1019.56 229.802 1034.28 216.088C1043.84 206.091 1052.62 188.789 1056.62 173.281C1058.82 160.72 1057.79 137.65 1053.65 123.937ZM1004.96 190.711C987.654 226.085 953.557 246.335 915.198 229.417C874.126 205.579 859.661 142.008 887.558 103.43C897.762 88.0501 912.615 73.5674 931.601 71.3885C996.953 61.2634 1025.88 140.598 1004.96 190.711Z" fill="white"/>
<path d="M434.222 86.5122C408.649 63.3141 369.644 49.0876 335.547 51.651C327.41 53.0608 318.757 53.7016 310.62 55.2396C290.859 59.4691 261.153 76.387 249.529 91.5106C222.277 133.677 219.177 180.714 255.47 217.498C270.84 233.519 296.283 246.335 317.852 249.411C328.96 251.462 338.388 253.897 348.721 252.744C404.774 246.464 459.665 215.575 459.795 154.056C459.665 133.165 451.141 102.917 434.222 86.5122ZM373.131 225.444C343.296 242.234 311.911 233.391 291.892 205.963C258.053 159.439 277.814 81.5137 338.388 68.8252C418.077 62.4169 439.13 192.89 373.131 225.444Z" fill="white"/>
<path d="M598.379 117.016C606.645 105.224 616.848 94.4584 622.789 81.2573C624.21 78.9503 625.372 76.5152 627.697 75.2335C629.376 74.4645 630.668 72.4138 630.539 70.6195C629.634 67.0309 626.535 63.5704 623.177 62.1606C620.852 61.3916 618.269 59.2127 619.819 56.5212C623.822 51.7791 638.159 57.0339 644.746 56.0086C649.395 55.8804 653.916 53.5734 658.565 53.3171C664.636 52.9326 670.706 54.5988 676.776 55.1114C678.584 55.3677 680.78 54.9832 682.459 55.7522C683.622 56.5212 683.88 57.6747 683.622 59.2127C682.201 63.9549 676.13 63.4422 672.385 65.1084C645.262 73.9518 626.793 111.889 612.328 134.831C610.261 138.932 605.87 142.008 605.999 146.75C606.386 150.083 608.711 153.287 611.036 155.594C625.372 170.717 635.446 189.942 647.975 206.86C653.528 214.55 658.565 221.471 666.831 226.085C677.035 231.981 693.954 237.748 703.641 228.008C704.803 226.854 706.611 226.598 708.032 226.085C708.032 226.085 708.419 226.213 708.419 226.341C709.065 227.239 710.098 227.239 710.873 228.008C712.552 229.93 712.036 232.622 710.486 234.544C699.508 249.796 675.872 253 658.953 252.359C621.368 251.462 604.062 218.78 584.43 190.455C581.201 186.354 577.843 179.945 572.16 179.561C565.831 179.048 562.086 185.585 558.986 190.199C554.724 196.735 550.72 204.425 546.329 210.577C542.713 215.575 538.838 220.574 534.963 225.188C531.218 229.289 524.502 235.698 529.151 241.337C531.734 244.157 541.034 244.797 538.58 248.899C536.384 251.334 531.993 250.052 529.151 250.437C522.306 251.077 516.623 251.206 510.424 251.077C499.962 250.565 488.725 251.718 478.393 251.077C475.422 251.077 473.873 248.13 475.164 245.566C477.36 242.234 482.397 242.49 485.755 241.081C508.357 232.75 518.044 209.68 531.347 191.737C538.58 181.483 546.846 171.871 554.724 162.258C561.699 153.799 553.045 145.725 547.233 139.957C528.376 119.066 517.527 80.3601 487.046 73.6955C478.135 71.773 467.286 72.4138 460.828 79.463C459.407 81.2573 456.953 79.7193 456.437 78.0532C455.662 75.8743 456.953 73.1828 459.02 70.7477C479.814 47.0369 518.69 49.4721 543.488 65.8774C552.012 71.9012 556.145 79.7193 562.732 87.5375C566.865 92.2796 571.773 96.2528 575.131 101.636C580.039 109.198 586.626 127.141 598.379 117.016Z" fill="white"/>
<path d="M725.597 54.9833C731.151 54.0862 737.092 54.4707 742.646 55.2397C759.565 56.0087 776.355 54.9833 793.275 54.3425C796.504 54.2143 802.832 54.8552 801.67 59.2128C798.57 65.2366 789.658 61.1353 786.43 71.5168C783.717 79.4631 784.751 88.691 784.88 96.8937C785.913 120.604 783.717 144.571 786.171 168.282C786.946 184.944 784.621 202.631 785.009 219.549C785.138 227.239 785.655 236.595 792.887 241.209C795.212 242.747 798.699 242.362 800.637 244.669C803.091 247.361 800.766 251.206 797.279 251.334C775.193 251.334 752.978 252.616 731.022 250.309C728.309 249.924 724.435 251.078 722.885 248.514C721.335 243.388 729.343 244.413 731.797 242.362C735.284 239.927 737.996 236.595 737.996 232.237C737.996 217.498 739.804 203.4 738.771 188.917C736.963 160.464 738.9 132.268 739.417 103.943C738.771 93.6895 737.867 83.5644 737.867 73.4393C737.609 66.9028 732.701 62.2888 725.856 61.1353C722.756 60.6226 723.014 55.8805 725.597 54.9833Z" fill="white"/>
<path d="M179.397 58.8283C174.36 64.724 174.489 72.2858 174.231 76.1307C173.456 87.4094 173.327 105.096 174.231 116.247C174.619 121.373 173.456 133.293 173.715 138.548C175.135 161.874 173.715 178.792 175.394 202.631C175.91 210.449 174.102 225.701 177.073 232.365C179.527 237.876 192.442 241.209 193.217 246.335C193.992 252.487 185.726 251.334 181.206 251.078C169.323 250.437 157.699 251.59 145.817 250.693C141.167 250.309 134.193 251.59 129.543 251.462C125.539 251.334 109.782 251.847 107.458 248.642C106.295 246.976 107.329 244.669 107.974 242.875C109.912 238.389 117.919 238.005 121.277 235.313C127.993 229.93 129.027 215.576 128.898 207.501C128.639 196.222 129.027 184.816 128.252 173.665C127.348 160.72 125.669 147.776 126.444 134.831C126.573 131.499 127.606 127.141 127.735 123.809C127.864 120.476 126.573 115.606 126.444 112.145C125.798 100.354 127.218 94.2022 127.089 82.4109C127.089 79.9757 125.927 77.1561 126.96 74.2083C127.864 71.3886 135.355 68.1844 136.776 66.1338C139.876 61.5198 127.864 61.648 125.539 61.7761C118.178 62.1606 110.557 63.955 103.196 64.2113C81.2391 65.1085 51.4041 57.9312 31.6432 48.9595C22.4732 44.73 13.0448 40.8851 5.16631 34.8612C3.74559 33.8359 0.387543 32.5542 0.258387 31.1444C-0.12908 26.2741 8.3952 26.9149 11.8824 27.1713C15.4988 27.4276 18.211 28.9656 21.3108 29.4783C29.4476 31.0163 39.1343 28.5811 47.4002 28.5811C52.3082 28.5811 57.3452 28.5811 62.2532 28.5811C68.7109 28.5811 74.7813 30.1191 80.9807 29.8628C106.424 28.7093 130.706 23.5826 155.374 17.8151C161.445 16.4053 166.611 12.5603 173.198 10.8942C180.689 8.97168 187.018 7.69002 194.638 6.92102C199.933 6.40835 205.229 3.46053 211.428 2.69153C224.085 1.15354 237.776 0.640876 250.562 0.256377C269.161 -0.128121 284.014 1.92254 301.966 5.38302C309.716 6.92102 315.011 10.1252 321.856 13.3293C324.181 14.4828 327.41 14.9955 329.606 16.149C331.543 17.1743 333.351 19.3531 335.159 20.5066C336.967 21.7883 343.296 24.8643 344.071 25.7614C347.3 29.4783 337.355 30.1191 335.03 29.7346C331.672 29.3501 327.797 27.1713 324.31 26.7868C321.727 26.5304 319.015 26.9149 316.302 26.6586C313.461 26.4023 310.491 25.1206 307.52 24.8643C300.804 24.3516 290.988 27.2994 283.884 27.9403C281.56 28.1966 278.847 27.6839 276.523 27.9403C272.777 28.3248 268.773 30.6318 265.157 31.4008C261.024 32.2979 256.374 31.7853 252.37 32.9388C249.142 33.8359 234.289 36.1429 230.156 37.2964C220.986 39.8597 213.753 43.8329 203.937 45.8835C200.579 46.6525 183.53 53.958 179.397 58.8283Z" fill="white"/>
</g>
<defs>
<clipPath id="clip0_9_78">
<rect width="1282" height="253" fill="white"/>
</clipPath>
</defs>
</svg>
