<svg width="213" height="32" viewBox="0 0 213 32" fill="none" xmlns="http://www.w3.org/2000/svg">
<path d="M10.2027 26.1231C8.81645 26.1231 7.36995 25.8218 6.2248 25.2793L6.16454 25.2191L8.21378 21.6631L8.33429 21.7234C8.87674 21.9644 9.41918 22.1452 9.84108 22.2055C10.3232 22.3261 10.7451 22.3863 11.1068 22.3863C11.167 22.3863 11.2273 22.3863 11.2273 22.3863C11.5287 22.3863 11.8903 22.3261 12.0711 22.1453C12.1314 22.085 12.1314 22.0247 12.1314 21.9644L12.7341 18.6495C12.7341 18.5289 12.7341 18.4084 12.6738 18.2879C12.6135 18.1673 12.493 18.1673 12.3724 18.1673H6.82751L6.28506 21.1809C5.80288 23.7726 3.39205 25.8218 0.80038 25.8218H0.499023L1.16199 22.0247H1.46335C1.94552 22.0247 2.3674 21.6631 2.42768 21.1809L2.97013 18.1071H1.82496L2.48801 14.31H3.6331L4.17556 11.1759H2.97013L4.29615 7.37878H12.2519C13.0355 7.37878 13.819 7.37875 14.6025 7.4993C15.145 7.61984 15.5669 7.74039 15.8682 7.9212C16.5312 8.3431 16.8928 8.94583 17.0134 9.66909C17.1942 11.2964 15.8079 13.1648 14.9641 14.0689L14.7833 14.2497L15.0244 14.31C15.6271 14.3703 16.1093 14.6716 16.4107 15.1538C16.7723 15.6359 16.8928 16.2387 16.7723 16.9016L15.9285 21.8439C15.5066 24.1342 13.9396 25.5807 11.5287 26.0026C11.1068 26.1231 10.6246 26.1231 10.2027 26.1231ZM7.43022 14.3702L7.61107 14.31C9.41921 14.0086 10.6246 13.5867 12.0711 12.1402C12.5533 11.658 12.493 11.5375 12.4328 11.4772C12.3725 11.3567 12.3122 11.2964 12.1314 11.2964C11.9506 11.2361 11.7095 11.2361 11.5287 11.2361H7.91243L7.43022 14.3702Z" fill="#E3FF63"/>
<path d="M17.1943 24.0757L24.1859 12.0214H20.8106L21.8353 8.22435H26.4159L27.9227 5.63269L31.1171 7.01892L30.454 8.22435H35.6374L34.3114 12.0214H31.4184L34.1306 24.0757L30.3938 25.462L27.561 13.1666L20.449 25.5222L17.1943 24.0757Z" fill="#E3FF63"/>
<path d="M35.0928 25.824L36.1174 22.0269H37.2625L39.8542 7.44128H43.591L41.0596 22.0269H48.6538L47.2676 25.824H35.0928Z" fill="#E3FF63"/>
<path d="M49.2568 25.824L50.2212 22.0269H51.3663L53.958 7.44128H57.7551L55.1634 22.0269H62.7576L61.4316 25.824H49.2568Z" fill="#E3FF63"/>
<path d="M74.2161 25.8218L74.8791 22.0247H75.1805C75.6626 22.0247 76.0845 21.6631 76.1448 21.1809L76.9284 16.9016H70.0574L68.4904 25.8218H64.6932L66.2603 16.9016H64.4521L65.7782 13.1046H66.9233L67.9479 7.43904H71.745L70.7204 13.1046H76.2653L77.29 14.6716L78.5557 7.37878H82.3528L79.9419 21.0603C79.4598 23.652 77.0488 25.7012 74.4572 25.7012H74.2161V25.8218Z" fill="#E3FF63"/>
<path d="M103.444 27.4516L103.866 25.1613C103.866 25.0407 103.866 24.8599 103.746 24.7996C103.685 24.6791 103.504 24.6188 103.384 24.6188C103.324 24.6188 103.324 24.6188 103.263 24.6188C103.143 24.6188 103.022 24.6791 102.902 24.6791C102.841 24.6791 102.781 24.6791 102.721 24.6791C102.299 24.6188 101.877 24.438 101.636 24.1366C101.395 23.775 101.274 23.3531 101.335 22.8709C101.455 21.786 102.54 20.8217 103.625 20.8217C103.685 20.8217 103.746 20.8217 103.806 20.8217C104.65 20.882 105.252 21.6052 105.192 22.5093C105.192 22.8107 105.072 23.0517 104.951 23.2928C104.891 23.4736 104.891 23.6544 104.951 23.775C105.011 23.8955 105.192 24.0161 105.373 24.0161H113.811L114.112 23.775L115.257 17.326H105.192L105.674 14.5535L105.433 14.2521H102.841L104.047 7.50172H106.699L107 7.26066L107.482 4.48816H118.03L117.548 7.26066L117.789 7.56202H120.501L117.487 24.7393H114.775L114.474 24.9804L114.052 27.5118H103.444V27.4516ZM107.362 8.10444L106.397 13.5289L106.639 13.8302H115.86L116.885 8.16473L116.644 7.86337H107.663L107.362 8.10444Z" fill="#E3FF63"/>
<path d="M81.3271 24.0757L88.3186 12.0214H84.9434L85.9681 8.22435H90.5487L92.0555 5.63269L95.3101 7.01892L94.5868 8.22435H99.8305L98.5045 12.0214H95.5512L98.3237 24.0757L94.5266 25.462L91.7541 13.1666L84.5818 25.5222L81.3271 24.0757Z" fill="#E3FF63"/>
<path d="M133.181 21.568H142.229V25H129.557V7.768H142.229V11.176H133.181L133.157 14.68H142.229V18.088H133.157L133.181 21.568ZM147.637 6.736V25H144.109V6.736H147.637ZM154.611 10.48V7.528H158.163V10.48H154.611ZM158.163 12.184V25H154.611V12.184H158.163ZM163.692 17.872V25H160.164V12.184H163.692V13.792C163.764 13.624 163.86 13.48 163.956 13.36C164.676 12.424 165.756 11.944 167.22 11.944C170.412 11.944 171.468 13.864 171.468 17.824V25H167.94V17.872C167.94 15.856 167.172 15.016 165.828 15.016C164.508 15.016 163.692 15.856 163.692 17.872ZM173.408 10.48V7.528H176.96V10.48H173.408ZM176.96 12.184V25H173.408V12.184H176.96ZM184.865 25.24C181.217 25.24 178.649 22.504 178.649 18.592C178.649 14.776 181.337 11.944 184.865 11.944C188.201 11.944 190.721 14.2 191.105 17.632H187.577C187.409 16.072 186.401 15.256 184.889 15.256C183.233 15.256 182.177 16.408 182.177 18.592C182.177 20.776 183.185 21.928 184.889 21.928C186.425 21.928 187.409 21.16 187.601 19.528H191.105C190.721 23.056 188.297 25.24 184.865 25.24ZM192.791 10.48V7.528H196.343V10.48H192.791ZM196.343 12.184V25H192.791V12.184H196.343ZM204.488 25.24C200.768 25.24 197.984 22.312 197.984 18.592C197.984 14.848 200.768 11.944 204.488 11.944C208.208 11.944 210.992 14.848 210.992 18.592C210.992 22.312 208.208 25.24 204.488 25.24ZM204.488 22.144C206.12 22.144 207.44 20.872 207.44 18.592C207.44 16.288 206.12 15.04 204.488 15.04C202.904 15.04 201.512 16.288 201.512 18.592C201.512 20.872 202.904 22.144 204.488 22.144Z" fill="#E3FF63"/>
</svg>
